<svg width="78" height="28" viewBox="0 0 78 28" fill="none" xmlns="http://www.w3.org/2000/svg">
<g clip-path="url(#clip0_2_66)">
<path d="M78 0H0V28H78V0Z" fill="#1C2834"/>
<path d="M8.94013 20.7521L5.63491 16.9371C5.24288 16.4731 5 15.8173 5 15.1763C5 14.8796 5.14488 14.4156 5.25425 14.15L8.30522 6.81504L8.94013 20.7521Z" fill="#01579B"/>
<path d="M20.2534 7.54787L16.9482 3.73284C16.6599 3.39839 16.0591 3 15.5506 3C15.1131 3 14.6841 3.10165 14.4072 3.29346L8.30663 6.81503L20.2534 7.54787Z" fill="#40C4FF"/>
<path d="M12.8803 25.3H20.8884V21.3391L14.9143 19.1373L9.44864 21.3391L12.8803 25.3Z" fill="#40C4FF"/>
<path d="M8.30519 18.6979C8.30519 19.875 8.43303 20.1636 8.9401 20.7521L9.4486 21.3391H20.8883L15.2963 14.0041L8.30519 6.81504V18.6979Z" fill="#29B6F6"/>
<path d="M18.4737 6.81339H8.30519L20.8883 21.3374H24.32V12.2417L20.252 7.54623C19.681 6.88553 19.1739 6.81339 18.4737 6.81339Z" fill="#01579B"/>
<path opacity="0.2" d="M9.06794 20.898C8.55945 20.3095 8.43303 19.7291 8.43303 18.6979V6.96096L8.30662 6.81504V18.6979C8.3052 19.7291 8.3052 20.0144 9.06794 20.898Z" fill="white"/>
<path opacity="0.2" d="M24.1936 12.0957V21.1915H20.7619L20.8884 21.339H24.32V12.2417L24.1936 12.0957Z" fill="#263238"/>
<path opacity="0.2" d="M20.2535 7.54789C19.6228 6.81996 19.1072 6.81504 18.3473 6.81504H8.30664L8.43305 6.96096H18.3473C18.7265 6.96096 19.6839 6.88718 20.2535 7.54789Z" fill="white"/>
<path opacity="0.2" d="M24.1938 12.0958L20.2537 7.54788L16.9485 3.73284C16.6602 3.39839 16.0593 3 15.5508 3C15.1134 3 14.6844 3.10165 14.4074 3.29346L8.3069 6.81503L5.25593 14.15C5.14656 14.4172 5.00168 14.8812 5.00168 15.1763C5.00168 15.8173 5.24598 16.4715 5.63659 16.9371L8.68188 20.4275C8.75432 20.5308 8.83954 20.6357 8.94039 20.7521L9.0668 20.898L9.44747 21.3374L12.7527 25.1524L12.8791 25.2984H20.7594H20.8858V21.3374H24.3174V21.3276V12.2417L24.1938 12.0958Z" fill="url(#paint0_radial_2_66)"/>
<path d="M39 9H42.5927C43.812 9 44.8761 9.25755 45.7864 9.774C46.6953 10.2904 47.3943 11.0084 47.882 11.9265C48.3697 12.846 48.6136 13.9002 48.6136 15.0919C48.6136 16.2836 48.3697 17.3378 47.882 18.2573C47.3943 19.1767 46.6953 19.8933 45.7864 20.4098C44.8774 20.9262 43.8133 21.1838 42.5927 21.1838H39V9ZM42.5927 19.8079C44.0011 19.8079 45.1174 19.3942 45.9441 18.5655C46.7696 17.7368 47.183 16.5798 47.183 15.0932C47.183 13.6066 46.7696 12.4496 45.9441 11.6209C45.1187 10.7922 44.0011 10.3785 42.5927 10.3785H40.398V19.8066H42.5927V19.8079Z" fill="white"/>
<path d="M50.7913 21.0837C50.3036 20.8341 49.9267 20.4912 49.6607 20.0535C49.3947 19.6171 49.2617 19.1207 49.2617 18.5642C49.2617 17.6447 49.5994 16.9281 50.2762 16.4117C50.9517 15.8952 51.8059 15.6377 52.8374 15.6377C53.3473 15.6377 53.8207 15.6951 54.2588 15.8085C54.697 15.9219 55.0322 16.0527 55.2656 16.1995V15.6724C55.2656 15.0252 55.0439 14.5061 54.6005 14.115C54.1571 13.724 53.5964 13.5279 52.9209 13.5279C52.4436 13.5279 52.0067 13.6333 51.6064 13.8428C51.2073 14.0523 50.8918 14.3446 50.6583 14.7196L49.5942 13.9029C49.9267 13.3811 50.3845 12.9727 50.9661 12.6778C51.5477 12.3829 52.1945 12.2348 52.9039 12.2348C54.0567 12.2348 54.963 12.5444 55.6229 13.1622C56.2828 13.7814 56.6127 14.6235 56.6127 15.6897V21.1864H55.2643V19.944H55.1978C54.9539 20.3644 54.5875 20.7207 54.0998 21.0156C53.612 21.3105 53.063 21.4587 52.4527 21.4587C51.8333 21.4587 51.2791 21.3332 50.7913 21.0837ZM53.9172 19.8079C54.3267 19.5584 54.654 19.2234 54.8978 18.8044C55.1417 18.3854 55.2643 17.925 55.2643 17.4259C54.9983 17.2444 54.6709 17.0963 54.2836 16.9828C53.895 16.8694 53.4855 16.812 53.0526 16.812C52.2767 16.812 51.6911 16.9762 51.2986 17.3058C50.9048 17.6354 50.7079 18.0611 50.7079 18.5815C50.7079 19.0579 50.8852 19.4436 51.2399 19.7385C51.5946 20.0335 52.0432 20.1816 52.587 20.1816C53.0643 20.1816 53.5077 20.0575 53.9172 19.8079Z" fill="white"/>
<path d="M58.1033 12.6431H59.4504V14.0216H59.5169C59.7164 13.5105 60.0541 13.1142 60.5314 12.8299C61.0074 12.547 61.529 12.4042 62.095 12.4042C62.3389 12.4042 62.5436 12.4216 62.7105 12.455V13.9362C62.5214 13.8909 62.2671 13.8682 61.945 13.8682C61.2239 13.8682 60.6397 14.1124 60.1911 14.5995C59.7425 15.0879 59.5169 15.7231 59.5169 16.5051V21.3212H58.1033V12.6431ZM66.8822 21.2852C66.5888 21.1704 66.3423 21.0143 66.1415 20.8168C65.9198 20.5979 65.7529 20.343 65.6421 20.0548C65.5312 19.7665 65.4751 19.4142 65.4751 18.9979V13.8175H63.995V12.507H65.4751V10.0569H66.8887V12.507H68.9505V13.8175H66.8887V18.6536C66.8887 19.1407 66.9774 19.4997 67.1548 19.7319C67.3647 19.9867 67.6699 20.1148 68.0689 20.1148C68.3897 20.1148 68.7014 20.0188 69 19.8253V21.2385C68.8331 21.3172 68.6649 21.3746 68.4927 21.4093C68.3206 21.444 68.1015 21.46 67.8355 21.46C67.4951 21.4587 67.1769 21.3999 66.8822 21.2852Z" fill="white"/>
</g>
<defs>
<radialGradient id="paint0_radial_2_66" cx="0" cy="0" r="1" gradientUnits="userSpaceOnUse" gradientTransform="translate(14.6595 14.1495) scale(9.65858 11.1484)">
<stop stop-color="white" stop-opacity="0.1"/>
<stop offset="1" stop-color="white" stop-opacity="0"/>
</radialGradient>
<clipPath id="clip0_2_66">
<rect width="78" height="28" fill="white"/>
</clipPath>
</defs>
</svg>
