<svg width="78" height="28" viewBox="0 0 78 28" fill="none" xmlns="http://www.w3.org/2000/svg">
<g clip-path="url(#clip0_1_22)">
<path d="M78 0H0V28H78V0Z" fill="#041E3C"/>
<path d="M27.2505 17.5V10.2273H32.0658V11.495H28.7881V13.228H31.7462V14.4957H28.7881V17.5H27.2505ZM33.1001 17.5V10.2273H34.6377V16.2322H37.7556V17.5H33.1001ZM43.2661 10.2273H44.8037V14.9503C44.8037 15.4806 44.6771 15.9446 44.4238 16.3423C44.1728 16.7401 43.8213 17.0502 43.3691 17.2727C42.9169 17.4929 42.3901 17.603 41.7888 17.603C41.1851 17.603 40.6572 17.4929 40.205 17.2727C39.7528 17.0502 39.4013 16.7401 39.1503 16.3423C38.8994 15.9446 38.7739 15.4806 38.7739 14.9503V10.2273H40.3115V14.8189C40.3115 15.0959 40.3719 15.3421 40.4927 15.5575C40.6158 15.773 40.7886 15.9422 41.0111 16.0653C41.2337 16.1884 41.4929 16.25 41.7888 16.25C42.0871 16.25 42.3463 16.1884 42.5665 16.0653C42.7891 15.9422 42.9607 15.773 43.0814 15.5575C43.2045 15.3421 43.2661 15.0959 43.2661 14.8189V10.2273ZM45.7918 11.495V10.2273H51.7648V11.495H49.5383V17.5H48.0184V11.495H45.7918ZM52.4715 11.495V10.2273H58.4445V11.495H56.218V17.5H54.6981V11.495H52.4715ZM59.4282 17.5V10.2273H64.3288V11.495H60.9658V13.228H64.0766V14.4957H60.9658V16.2322H64.343V17.5H59.4282ZM65.5512 17.5V10.2273H68.4206C68.9698 10.2273 69.4386 10.3255 69.8268 10.522C70.2174 10.7161 70.5146 10.992 70.7181 11.3494C70.9241 11.7045 71.0271 12.1224 71.0271 12.603C71.0271 13.0859 70.9229 13.5014 70.7146 13.8494C70.5063 14.1951 70.2044 14.4602 69.8091 14.6449C69.4161 14.8295 68.9402 14.9219 68.3815 14.9219H66.4603V13.6861H68.1329C68.4265 13.6861 68.6703 13.6458 68.8645 13.5653C69.0586 13.4848 69.203 13.3641 69.2977 13.2031C69.3948 13.0421 69.4433 12.8421 69.4433 12.603C69.4433 12.3615 69.3948 12.1579 69.2977 11.9922C69.203 11.8265 69.0574 11.701 68.8609 11.6158C68.6668 11.5282 68.4217 11.4844 68.1258 11.4844H67.0889V17.5H65.5512ZM69.4788 14.1903L71.2863 17.5H69.5889L67.8204 14.1903H69.4788Z" fill="white"/>
<path d="M6.71251 17.1918L3.22501 14.12L14.55 4.14503H21.525" fill="#42A5F5" fill-opacity="0.8"/>
<path d="M21.525 13.3493H14.55L11.9375 15.6504L15.425 18.7221" fill="#42A5F5" fill-opacity="0.8"/>
<path d="M11.9375 21.7939L14.55 24.095H21.525L15.425 18.7221" fill="#0D47A1"/>
<path d="M11.9402 15.6566L8.4577 18.7239L11.9402 21.7913L15.4226 18.7239L11.9402 15.6566Z" fill="#42A5F5"/>
<path d="M15.4226 18.7239L11.9402 21.7913L12.4263 22.2195L15.9088 19.1521L15.4226 18.7239Z" fill="url(#paint0_linear_1_22)"/>
<path d="M11.9375 21.7939L17.1125 20.2195L15.425 18.7221" fill="url(#paint1_linear_1_22)"/>
</g>
<defs>
<linearGradient id="paint0_linear_1_22" x1="11.9402" y1="21.7913" x2="54.4156" y2="70.0154" gradientUnits="userSpaceOnUse">
<stop offset="0.2" stop-opacity="0.15"/>
<stop offset="0.85" stop-color="#616161" stop-opacity="0.01"/>
</linearGradient>
<linearGradient id="paint1_linear_1_22" x1="11.9375" y1="18.7221" x2="17.1125" y2="18.7221" gradientUnits="userSpaceOnUse">
<stop offset="0.2" stop-opacity="0.55"/>
<stop offset="0.85" stop-color="#616161" stop-opacity="0.01"/>
</linearGradient>
<clipPath id="clip0_1_22">
<rect width="78" height="28" fill="white"/>
</clipPath>
</defs>
</svg>
